<svg xmlns="http://www.w3.org/2000/svg" viewBox="0 0 64 64">
  <rect width="64" height="64" rx="14" fill="#ffffff" />
  <path d="M0 14C0 6.3 6.3 0 14 0h9v64H14C6.3 64 0 57.7 0 50V14Z" fill="#1e3a8a" />
  <path d="M41 0h9c7.7 0 14 6.3 14 14v36c0 7.7-6.3 14-14 14h-9V0Z" fill="#dc2626" />
  <rect x="5" y="5" width="54" height="54" rx="11" fill="none" stroke="#1e3a8a" stroke-width="2" opacity="0.2" />
  <path
    d="M12 25.3 31.1 16.7a2.2 2.2 0 0 1 1.8 0L52 25.3 32.9 34a2.2 2.2 0 0 1-1.8 0L12 25.3Z"
    fill="#101417"
  />
  <path
    d="M20 31.4v6c0 5 5.4 8.5 12 8.5s12-3.5 12-8.5v-6L33.6 36a4 4 0 0 1-3.2 0L20 31.4Z"
    fill="#1e3a8a"
  />
  <path d="M49 27.5v10" stroke="#101417" stroke-width="4" stroke-linecap="round" />
  <circle cx="49" cy="42" r="3.5" fill="#dc2626" />
  <path d="M20 52h24" stroke="#1e3a8a" stroke-width="4" stroke-linecap="round" opacity="0.85" />
</svg>
